<mxfile host="Electron" modified="2023-11-13T22:14:48.556Z" agent="Mozilla/5.0 (Windows NT 10.0; Win64; x64) AppleWebKit/537.36 (KHTML, like Gecko) draw.io/22.0.2 Chrome/114.0.5735.289 Electron/25.8.4 Safari/537.36" etag="m9YHuGN8UbDvOybs723f" version="22.0.2" type="device">
  <diagram name="Page-1" id="Uygwv6M6QL58LOH-kOZP">
    <mxGraphModel dx="1574" dy="1159" grid="1" gridSize="10" guides="1" tooltips="1" connect="1" arrows="1" fold="1" page="1" pageScale="1" pageWidth="1100" pageHeight="850" math="0" shadow="0">
      <root>
        <mxCell id="0" />
        <mxCell id="1" parent="0" />
        <mxCell id="2mtRAOA0AHZWEoR1YFOi-1" value="" style="edgeStyle=orthogonalEdgeStyle;rounded=0;orthogonalLoop=1;jettySize=auto;html=1;" edge="1" parent="1" source="2mtRAOA0AHZWEoR1YFOi-2" target="2mtRAOA0AHZWEoR1YFOi-4">
          <mxGeometry relative="1" as="geometry" />
        </mxCell>
        <mxCell id="2mtRAOA0AHZWEoR1YFOi-2" value="&lt;p style=&quot;line-height: 90%;&quot;&gt;&lt;font style=&quot;font-size: 10px;&quot;&gt;Start&lt;/font&gt;&lt;/p&gt;" style="ellipse;whiteSpace=wrap;html=1;aspect=fixed;" vertex="1" parent="1">
          <mxGeometry x="50" y="120" width="40" height="40" as="geometry" />
        </mxCell>
        <mxCell id="2mtRAOA0AHZWEoR1YFOi-3" value="" style="edgeStyle=orthogonalEdgeStyle;rounded=0;orthogonalLoop=1;jettySize=auto;html=1;" edge="1" parent="1" source="2mtRAOA0AHZWEoR1YFOi-4" target="2mtRAOA0AHZWEoR1YFOi-6">
          <mxGeometry relative="1" as="geometry" />
        </mxCell>
        <mxCell id="2mtRAOA0AHZWEoR1YFOi-4" value="&lt;font style=&quot;font-size: 10px;&quot;&gt;Select User&lt;br&gt;Profile Menu&lt;/font&gt;" style="rounded=1;whiteSpace=wrap;html=1;" vertex="1" parent="1">
          <mxGeometry x="170" y="120" width="120" height="40" as="geometry" />
        </mxCell>
        <mxCell id="2mtRAOA0AHZWEoR1YFOi-5" value="" style="edgeStyle=orthogonalEdgeStyle;rounded=0;orthogonalLoop=1;jettySize=auto;html=1;" edge="1" parent="1" source="2mtRAOA0AHZWEoR1YFOi-6" target="2mtRAOA0AHZWEoR1YFOi-9">
          <mxGeometry relative="1" as="geometry" />
        </mxCell>
        <mxCell id="2mtRAOA0AHZWEoR1YFOi-6" value="&lt;span style=&quot;font-size: 10px;&quot;&gt;Click Profile Button&lt;/span&gt;" style="rounded=1;whiteSpace=wrap;html=1;" vertex="1" parent="1">
          <mxGeometry x="170" y="240" width="120" height="40" as="geometry" />
        </mxCell>
        <mxCell id="2mtRAOA0AHZWEoR1YFOi-23" style="edgeStyle=orthogonalEdgeStyle;rounded=0;orthogonalLoop=1;jettySize=auto;html=1;" edge="1" parent="1" source="2mtRAOA0AHZWEoR1YFOi-9" target="2mtRAOA0AHZWEoR1YFOi-10">
          <mxGeometry relative="1" as="geometry" />
        </mxCell>
        <mxCell id="2mtRAOA0AHZWEoR1YFOi-9" value="&lt;span style=&quot;font-size: 10px;&quot;&gt;Click Edit&lt;br&gt;Profile Button&lt;/span&gt;" style="rounded=1;whiteSpace=wrap;html=1;" vertex="1" parent="1">
          <mxGeometry x="170" y="360" width="120" height="40" as="geometry" />
        </mxCell>
        <mxCell id="2mtRAOA0AHZWEoR1YFOi-25" style="edgeStyle=orthogonalEdgeStyle;rounded=0;orthogonalLoop=1;jettySize=auto;html=1;" edge="1" parent="1" source="2mtRAOA0AHZWEoR1YFOi-10" target="2mtRAOA0AHZWEoR1YFOi-11">
          <mxGeometry relative="1" as="geometry" />
        </mxCell>
        <mxCell id="2mtRAOA0AHZWEoR1YFOi-10" value="&lt;span style=&quot;font-size: 10px;&quot;&gt;Proceed to&lt;br&gt;&lt;/span&gt;&lt;font style=&quot;font-size: 10px;&quot;&gt;Profile Info Form&lt;/font&gt;" style="rounded=1;whiteSpace=wrap;html=1;" vertex="1" parent="1">
          <mxGeometry x="410" y="360" width="120" height="40" as="geometry" />
        </mxCell>
        <mxCell id="2mtRAOA0AHZWEoR1YFOi-26" style="edgeStyle=orthogonalEdgeStyle;rounded=0;orthogonalLoop=1;jettySize=auto;html=1;" edge="1" parent="1" source="2mtRAOA0AHZWEoR1YFOi-11" target="2mtRAOA0AHZWEoR1YFOi-22">
          <mxGeometry relative="1" as="geometry" />
        </mxCell>
        <mxCell id="2mtRAOA0AHZWEoR1YFOi-11" value="&lt;span style=&quot;font-size: 10px;&quot;&gt;Complete&lt;br&gt;&lt;/span&gt;&lt;font style=&quot;font-size: 10px;&quot;&gt;Profile Info Form&lt;/font&gt;" style="rounded=1;whiteSpace=wrap;html=1;" vertex="1" parent="1">
          <mxGeometry x="410" y="480" width="120" height="40" as="geometry" />
        </mxCell>
        <mxCell id="2mtRAOA0AHZWEoR1YFOi-12" value="&lt;font style=&quot;font-size: 10px;&quot;&gt;Upload&lt;br&gt;image&lt;/font&gt;" style="rhombus;whiteSpace=wrap;html=1;fontSize=7;" vertex="1" parent="1">
          <mxGeometry x="810" y="465" width="70" height="70" as="geometry" />
        </mxCell>
        <mxCell id="2mtRAOA0AHZWEoR1YFOi-13" value="" style="endArrow=classic;html=1;fontSize=7;exitX=1;exitY=0.5;exitDx=0;exitDy=0;" edge="1" parent="1" source="2mtRAOA0AHZWEoR1YFOi-12" target="2mtRAOA0AHZWEoR1YFOi-20">
          <mxGeometry relative="1" as="geometry">
            <mxPoint x="941.77" y="559.71" as="sourcePoint" />
            <mxPoint x="1041.7699999999998" y="620" as="targetPoint" />
            <Array as="points">
              <mxPoint x="1031.77" y="500" />
            </Array>
          </mxGeometry>
        </mxCell>
        <mxCell id="2mtRAOA0AHZWEoR1YFOi-14" value="&lt;font style=&quot;font-size: 10px;&quot;&gt;&amp;nbsp; Yes&amp;nbsp;&amp;nbsp;&lt;/font&gt;" style="edgeLabel;resizable=0;html=1;align=center;verticalAlign=middle;fontSize=7;" connectable="0" vertex="1" parent="2mtRAOA0AHZWEoR1YFOi-13">
          <mxGeometry relative="1" as="geometry">
            <mxPoint x="-80" as="offset" />
          </mxGeometry>
        </mxCell>
        <mxCell id="2mtRAOA0AHZWEoR1YFOi-15" value="" style="endArrow=classic;html=1;fontSize=7;exitX=0.5;exitY=1;exitDx=0;exitDy=0;entryX=0.5;entryY=0;entryDx=0;entryDy=0;" edge="1" parent="1" source="2mtRAOA0AHZWEoR1YFOi-12" target="2mtRAOA0AHZWEoR1YFOi-19">
          <mxGeometry relative="1" as="geometry">
            <mxPoint x="1001.77" y="620" as="sourcePoint" />
            <mxPoint x="921.77" y="660" as="targetPoint" />
          </mxGeometry>
        </mxCell>
        <mxCell id="2mtRAOA0AHZWEoR1YFOi-16" value="&lt;p style=&quot;line-height: 0%;&quot;&gt;&lt;font style=&quot;font-size: 10px;&quot;&gt;No&lt;/font&gt;&lt;/p&gt;" style="edgeLabel;resizable=0;html=1;align=center;verticalAlign=middle;fontSize=7;" connectable="0" vertex="1" parent="2mtRAOA0AHZWEoR1YFOi-15">
          <mxGeometry relative="1" as="geometry">
            <mxPoint y="-5" as="offset" />
          </mxGeometry>
        </mxCell>
        <mxCell id="2mtRAOA0AHZWEoR1YFOi-17" style="edgeStyle=orthogonalEdgeStyle;rounded=0;orthogonalLoop=1;jettySize=auto;html=1;" edge="1" parent="1" source="2mtRAOA0AHZWEoR1YFOi-19" target="2mtRAOA0AHZWEoR1YFOi-20">
          <mxGeometry relative="1" as="geometry" />
        </mxCell>
        <mxCell id="2mtRAOA0AHZWEoR1YFOi-18" value="&amp;nbsp;No&amp;nbsp;" style="edgeLabel;html=1;align=center;verticalAlign=middle;resizable=0;points=[];" vertex="1" connectable="0" parent="2mtRAOA0AHZWEoR1YFOi-17">
          <mxGeometry x="-0.3255" y="-1" relative="1" as="geometry">
            <mxPoint as="offset" />
          </mxGeometry>
        </mxCell>
        <mxCell id="2mtRAOA0AHZWEoR1YFOi-19" value="&lt;font style=&quot;font-size: 10px;&quot;&gt;Take&lt;br&gt;photo&lt;/font&gt;" style="rhombus;whiteSpace=wrap;html=1;fontSize=7;" vertex="1" parent="1">
          <mxGeometry x="811.77" y="630" width="68.23" height="68.23" as="geometry" />
        </mxCell>
        <mxCell id="2mtRAOA0AHZWEoR1YFOi-20" value="&lt;font style=&quot;font-size: 10px;&quot;&gt;Finish&lt;/font&gt;" style="ellipse;whiteSpace=wrap;html=1;aspect=fixed;fontSize=7;" vertex="1" parent="1">
          <mxGeometry x="1011.77" y="644.12" width="40" height="40" as="geometry" />
        </mxCell>
        <mxCell id="2mtRAOA0AHZWEoR1YFOi-27" style="edgeStyle=orthogonalEdgeStyle;rounded=0;orthogonalLoop=1;jettySize=auto;html=1;" edge="1" parent="1" source="2mtRAOA0AHZWEoR1YFOi-22" target="2mtRAOA0AHZWEoR1YFOi-12">
          <mxGeometry relative="1" as="geometry" />
        </mxCell>
        <mxCell id="2mtRAOA0AHZWEoR1YFOi-28" value="&amp;nbsp;Yes&amp;nbsp;" style="edgeLabel;html=1;align=center;verticalAlign=middle;resizable=0;points=[];" vertex="1" connectable="0" parent="2mtRAOA0AHZWEoR1YFOi-27">
          <mxGeometry x="-0.2889" relative="1" as="geometry">
            <mxPoint as="offset" />
          </mxGeometry>
        </mxCell>
        <mxCell id="2mtRAOA0AHZWEoR1YFOi-29" style="edgeStyle=orthogonalEdgeStyle;rounded=0;orthogonalLoop=1;jettySize=auto;html=1;exitX=0.5;exitY=1;exitDx=0;exitDy=0;entryX=0.5;entryY=1;entryDx=0;entryDy=0;" edge="1" parent="1" source="2mtRAOA0AHZWEoR1YFOi-22" target="2mtRAOA0AHZWEoR1YFOi-20">
          <mxGeometry relative="1" as="geometry">
            <Array as="points">
              <mxPoint x="685" y="760" />
              <mxPoint x="1032" y="760" />
            </Array>
          </mxGeometry>
        </mxCell>
        <mxCell id="2mtRAOA0AHZWEoR1YFOi-30" value="No" style="edgeLabel;html=1;align=center;verticalAlign=middle;resizable=0;points=[];" vertex="1" connectable="0" parent="2mtRAOA0AHZWEoR1YFOi-29">
          <mxGeometry x="-0.7722" y="-1" relative="1" as="geometry">
            <mxPoint as="offset" />
          </mxGeometry>
        </mxCell>
        <mxCell id="2mtRAOA0AHZWEoR1YFOi-22" value="&lt;font style=&quot;font-size: 10px;&quot;&gt;Change&lt;br&gt;image?&lt;/font&gt;" style="rhombus;whiteSpace=wrap;html=1;fontSize=7;" vertex="1" parent="1">
          <mxGeometry x="650" y="465" width="70" height="70" as="geometry" />
        </mxCell>
      </root>
    </mxGraphModel>
  </diagram>
</mxfile>
